 <svg  version="1.0" xmlns="http://www.w3.org/2000/svg"  width="300.000000pt" height="300.000000pt" viewBox="0 0 300.000000 300.000000"  preserveAspectRatio="xMidYMid meet">  <g transform="translate(0.000000,300.000000) scale(0.050000,-0.050000)" fill="#4c4741" stroke="none"> <path d="M2720 5928 c-50 -17 -156 -31 -240 -32 l-150 0 129 -17 c98 -13 151 -10 215 11 48 16 124 35 171 41 l85 12 -98 -60 c-89 -53 -94 -60 -50 -67 44 -7 40 -11 -37 -52 -47 -25 -85 -36 -85 -25 0 132 -459 101 -707 -48 -130 -78 -142 -83 -121 -46 8 15 7 18 -4 8 -10 -9 -18 -27 -18 -40 0 -12 -16 -23 -34 -23 -39 0 -189 -140 -279 -260 l-61 -80 62 69 62 69 0 -66 c0 -36 14 -120 31 -185 l30 -118 -86 -155 -86 -154 -107 -6 c-130 -8 -267 -131 -328 -296 -20 -54 -54 -136 -75 -183 -41 -91 -314 -465 -339 -465 -8 0 -39 -38 -70 -85 -30 -47 -157 -184 -281 -305 -287 -279 -328 -440 -133 -529 114 -52 541 8 679 95 62 39 62 37 -56 -406 -152 -567 -148 -732 19 -845 83 -55 126 -60 57 -6 -203 160 -189 505 41 977 l81 165 -11 -195 c-7 -108 -17 -211 -24 -230 -7 -18 -7 -141 0 -273 17 -341 124 -543 288 -543 29 0 20 -10 -30 -35 -63 -31 -201 -251 -174 -277 4 -4 32 46 63 111 58 121 153 187 336 232 40 10 55 26 55 60 0 26 10 53 23 61 13 8 18 6 11 -5 -6 -11 10 -46 36 -78 l47 -59 -43 95 c-24 52 -47 86 -51 75 -14 -44 -40 -16 -53 59 -8 47 -4 95 10 122 l24 43 59 -57 c33 -31 92 -100 130 -152 39 -52 79 -95 89 -95 20 0 1 24 -172 225 -66 77 -147 175 -179 218 l-60 79 34 94 c20 55 26 97 14 101 -39 13 -19 153 32 229 28 41 59 70 68 65 9 -6 28 3 41 19 28 34 92 40 110 10 7 -11 32 -29 56 -41 31 -15 26 -6 -16 30 l-60 51 97 90 c54 50 107 90 119 90 11 0 37 15 57 33 28 25 43 27 64 9 22 -18 30 -15 38 16 13 49 198 167 223 142 31 -31 -5 -85 -50 -74 -36 10 -41 4 -33 -36 7 -39 -9 -60 -88 -114 -53 -36 -97 -73 -97 -81 0 -8 -17 -15 -39 -15 -50 0 -126 -98 -114 -146 8 -28 2 -34 -23 -26 -19 7 -9 -7 21 -30 60 -45 66 -91 42 -293 -17 -139 -58 -139 -54 0 l3 105 -14 -100 c-15 -117 -12 -130 37 -130 41 0 61 38 61 113 0 28 9 44 20 37 11 -7 20 8 20 32 0 39 9 34 73 -40 40 -47 107 -107 149 -133 123 -78 125 -263 4 -413 l-54 -66 60 55 c82 75 88 71 88 -54 0 -98 -6 -113 -65 -161 l-65 -53 64 32 c91 44 106 84 92 248 -13 152 -5 170 43 98 37 -57 12 -718 -30 -797 -22 -42 -22 -45 5 -23 16 13 37 18 45 10 9 -8 9 14 2 49 -26 121 17 141 65 30 l43 -99 -37 -259 c-32 -217 -48 -275 -100 -360 -68 -111 -134 -281 -115 -300 6 -6 21 15 34 46 12 32 58 130 103 219 61 121 85 197 97 310 9 82 23 199 30 259 11 97 5 126 -49 240 -43 90 -62 160 -62 228 l0 98 55 -82 c146 -216 372 -425 570 -527 116 -59 89 -28 -39 44 -187 105 -434 362 -533 553 -37 72 -47 326 -12 326 14 0 13 15 -1 45 -17 35 -12 33 26 -12 l48 -57 221 15 c204 13 224 11 278 -28 102 -75 316 -97 461 -48 l122 41 99 -46 c55 -25 121 -51 147 -58 36 -9 33 -5 -11 16 l-59 27 83 14 c94 16 284 124 380 216 62 60 93 55 40 -6 -14 -15 0 -7 30 20 68 59 71 30 6 -65 l-48 -72 53 20 c30 11 89 54 132 94 43 41 72 63 64 49 -26 -46 15 -26 83 40 l68 65 -23 -59 c-12 -33 -33 -73 -46 -89 -14 -17 10 -10 58 16 113 63 283 354 337 577 l28 115 1 -152 c3 -226 -75 -402 -204 -466 -63 -31 -63 -31 -12 -32 29 0 85 22 125 49 71 48 103 41 43 -9 -16 -14 -30 -34 -30 -46 0 -36 104 73 131 138 15 33 41 73 59 88 70 58 148 267 154 409 6 165 71 4 90 -223 10 -123 6 -153 -31 -215 -46 -78 -26 -99 23 -24 87 133 78 381 -24 618 -20 47 -60 181 -90 297 -29 116 -83 287 -120 380 -103 257 -103 258 -46 258 27 0 72 -18 100 -40 290 -228 740 -174 888 108 70 134 -33 275 -356 483 -287 185 -423 296 -750 609 -371 354 -451 402 -636 382 -123 -13 -145 -22 -193 -79 -53 -64 -54 -65 -66 -19 -37 137 12 168 211 132 136 -25 164 -10 50 28 -63 20 -120 26 -174 16 -67 -12 -81 -9 -91 23 -7 21 -43 79 -82 129 l-70 92 143 -114 c79 -63 147 -110 152 -104 36 35 -558 419 -757 490 -184 65 -495 81 -635 32z m369 -206 c68 -27 -252 -56 -348 -32 -39 10 -43 17 -20 31 35 22 313 23 368 1z m-960 -228 c-264 -217 -400 -466 -328 -602 l39 -71 -59 -176 c-33 -96 -65 -213 -73 -260 -16 -102 -16 -102 -92 -21 -55 59 -58 70 -39 134 29 93 14 105 -17 13 -15 -46 -36 -71 -59 -71 -27 0 -45 -35 -77 -145 -91 -314 -85 -295 -69 -195 8 50 14 123 15 163 0 40 6 70 13 65 7 -4 13 12 12 37 -3 252 412 943 682 1136 128 92 167 87 52 -7z m-313 -1049 c-55 -218 -96 -308 -96 -211 0 78 131 482 150 463 4 -4 -21 -118 -54 -252z m213 203 c81 -46 92 -59 83 -105 -6 -29 -21 -109 -34 -177 -21 -116 -26 -123 -63 -103 -23 12 -79 16 -128 10 -48 -7 -87 -5 -87 4 0 59 109 423 127 423 4 0 50 -24 102 -52z m393 -105 c18 -20 102 -346 91 -356 -36 -37 -213 -61 -215 -30 -2 30 -3 30 -11 0 -9 -31 -115 -62 -137 -40 -14 13 -12 166 3 326 l12 133 123 -11 c67 -5 127 -16 134 -22z m358 -30 c0 -38 5 -95 12 -128 11 -55 7 -62 -49 -74 -34 -8 -83 -31 -111 -53 -56 -44 -59 -41 -92 80 -13 48 -36 101 -53 117 -16 17 -26 45 -23 62 6 32 18 34 281 60 27 2 35 -12 35 -64z m327 -403 c32 -60 88 -152 124 -203 80 -112 78 -116 -61 -160 -135 -42 -122 -63 -138 228 -15 276 -6 291 75 135z m-927 -353 c0 -27 -68 -37 -83 -13 -20 31 -22 226 -4 317 11 56 84 -199 87 -304z m1220 96 c-27 -28 -57 3 -112 113 l-50 104 89 -100 c49 -55 82 -108 73 -117z m-1343 -142 c-32 -36 -39 6 -24 132 l16 127 12 -120 c7 -66 5 -128 -4 -139z m1523 40 c105 -77 303 -171 361 -171 10 0 19 -35 19 -77 l0 -78 -181 88 c-247 119 -445 319 -324 327 3 0 59 -40 125 -89z m-145 -91 c58 -53 98 -101 90 -106 -8 -5 -51 -20 -95 -34 -44 -14 -104 -42 -133 -63 -73 -51 -87 -48 -149 34 -64 83 -54 104 29 60 34 -17 77 -30 97 -29 22 1 16 8 -18 18 -117 35 -221 139 -141 141 19 0 67 18 105 39 95 52 96 52 215 -60z m-1196 -75 c59 -167 215 -345 301 -345 14 0 6 16 -16 35 -40 34 -104 194 -104 259 0 17 28 -8 62 -56 77 -110 247 -253 189 -160 -6 10 44 1 111 -20 67 -21 154 -38 194 -38 l72 0 -69 62 c-60 54 -61 58 -13 29 64 -38 228 -91 274 -89 22 1 23 4 4 12 -32 13 7 66 49 66 15 0 45 11 67 25 33 20 45 18 74 -10 32 -33 30 -35 -30 -47 -35 -7 -64 -23 -65 -35 0 -13 -47 -50 -104 -83 -57 -33 -131 -98 -164 -143 -55 -76 -67 -83 -131 -74 -46 6 -94 -4 -140 -29 -70 -39 -70 -39 -130 6 -33 25 -79 51 -103 58 -39 12 -66 64 -67 128 0 19 14 22 45 12 75 -24 0 52 -95 95 -87 39 -330 52 -330 17 0 -32 -55 -23 -68 12 -22 56 -13 77 16 37 51 -70 52 -19 1 80 -61 121 -67 251 -12 251 26 0 48 -28 72 -90 19 -49 42 -95 52 -101 10 -6 0 28 -21 75 -51 112 -50 136 6 136 35 0 52 -18 73 -75z m930 -175 c31 -24 34 -35 14 -55 -19 -19 -34 -12 -73 35 -80 99 -54 108 59 20z m692 -70 c85 -44 109 -92 34 -69 -107 34 -135 50 -135 79 0 39 6 38 101 -10z m-1941 -205 c0 -8 -7 -15 -15 -15 -9 0 -34 -33 -55 -73 l-40 -74 -13 59 c-7 32 -13 116 -15 187 l-2 128 70 -98 c39 -55 70 -106 70 -114z m43 40 c-29 -29 -62 9 -63 74 0 38 2 38 44 -4 36 -36 39 -50 19 -70z m3083 -154 c86 -174 102 -428 35 -558 -53 -105 -51 -108 -53 63 -2 80 -22 235 -45 345 -84 400 -73 426 63 150z m-2896 -92 c-33 -27 -89 -63 -124 -79 -35 -17 -82 -54 -105 -83 -22 -29 -41 -41 -41 -27 0 38 125 148 223 197 111 55 121 53 47 -8z m842 -84 c11 -8 47 -62 78 -120 143 -265 378 -381 650 -319 l70 16 -90 -84 c-405 -374 -707 -434 -1194 -236 l-109 44 93 45 c194 94 286 230 304 454 16 182 99 267 198 200z m-1905 -750 c17 -168 114 -365 206 -419 78 -46 76 -58 -9 -60 -65 -2 -159 60 -198 131 -35 62 -31 82 9 51 19 -15 14 -3 -12 26 -48 54 -55 100 -46 311 5 127 35 103 50 -40z m2397 -80 c-68 -68 -394 -118 -494 -75 -30 13 -17 18 54 19 71 1 140 24 280 96 186 95 186 95 193 47 3 -28 -10 -64 -33 -87z m-2141 -228 c97 -99 97 -145 1 -86 -67 40 -129 149 -154 269 -11 54 -8 52 30 -20 23 -44 78 -117 123 -163z m2377 204 c0 -5 -28 -41 -62 -80 -69 -79 -138 -95 -138 -31 0 25 13 40 35 40 19 0 62 18 95 39 69 44 70 44 70 32z m27 -161 c-14 -37 -95 -60 -142 -39 -28 12 -18 20 45 40 106 34 111 34 97 -1z"/> <path d="M3440 3811 c0 -93 388 -320 430 -251 7 12 -13 20 -50 20 -83 0 -166 46 -283 155 -53 50 -97 84 -97 76z"/> <path d="M2132 5831 c-65 -27 -128 -59 -140 -72 -12 -13 10 -7 48 12 39 20 120 52 180 71 61 20 92 36 70 36 -22 1 -93 -21 -158 -47z"/> <path d="M1208 4875 c-29 -58 -95 -146 -147 -196 -127 -122 -394 -633 -353 -674 4 -4 37 67 72 159 139 363 290 556 473 609 l97 28 -85 -11 -86 -11 51 101 c28 55 46 100 41 100 -6 0 -34 -47 -63 -105z"/> <path d="M1600 2581 c100 -84 179 -132 100 -61 -38 34 -88 72 -110 83 -28 14 -25 7 10 -22z"/> <path d="M1506 2236 c13 -8 51 -15 84 -15 33 0 71 7 84 15 14 8 -24 15 -84 15 -60 0 -98 -7 -84 -15z"/> <path d="M4007 1626 c24 -6 33 -21 26 -43 -6 -18 -65 -216 -131 -441 -143 -483 -101 -427 -300 -400 -90 12 -169 18 -174 13 -15 -15 315 -53 672 -78 334 -23 367 -21 693 51 83 18 177 76 239 146 l62 70 13 -206 c8 -113 22 -211 32 -218 11 -6 37 -51 60 -101 24 -53 40 -73 40 -49 0 22 -22 80 -50 128 -40 70 -52 123 -58 257 -8 160 -43 265 -90 265 -10 0 -24 19 -31 42 -24 73 -28 30 -7 -68 42 -196 -204 -294 -742 -294 -333 0 -312 -40 -190 367 149 495 141 479 237 466 78 -10 79 -10 22 11 -33 12 -81 39 -108 59 -33 26 -78 36 -150 35 -56 -2 -85 -7 -65 -12z"/> <path d="M1422 1475 c-1 -33 -20 -66 -49 -85 -26 -17 -57 -53 -70 -81 -36 -79 -27 -86 17 -13 23 36 48 61 58 55 24 -14 68 97 56 142 -6 25 -10 19 -12 -18z"/> <path d="M790 1005 c-64 -74 -129 -150 -145 -168 -15 -18 -30 -72 -33 -120 -4 -48 -13 -114 -22 -147 -12 -49 -10 -56 11 -35 15 13 30 78 35 143 8 111 17 128 147 290 166 206 169 224 7 37z"/> </g> </svg> 